<?xml version="1.0" encoding="utf-8"?>
<svg xmlns="http://www.w3.org/2000/svg" version="1.1" style="shape-rendering:geometricPrecision;text-rendering:geometricPrecision;image-rendering:optimizeQuality;" viewBox="137.09 464.033 2294.04 1672.703" x="0px" y="0px" fill-rule="evenodd" clip-rule="evenodd">
  <defs>
    <style type="text/css">
   
    .fil0 {fill:black;fill-rule:nonzero}
   
  </style>
  </defs>
  <g>
    <path class="fil0" d="M1925 1133c320,0 482,389 255,615 -226,227 -615,65 -615,-255 0,-130 70,-247 177,-310l-74 -179 -311 366c42,155 -157,260 -261,137l-122 9c-19,308 -395,452 -614,232 -227,-226 -65,-615 255,-615 66,0 128,18 182,49l193 -245 -54 -149c-49,1 -123,16 -124,-45 -1,-27 20,-50 47,-50l268 -7c64,-2 66,96 2,97l-90 3 40 112 531 -30c-21,-52 -64,-118 -6,-142l293 1c232,8 264,287 100,340 -61,20 -91,-73 -30,-93 59,-19 51,-145 -75,-150l-195 -3 135 324c30,-8 61,-12 93,-12zm-714 126c33,0 64,10 88,28l272 -320 -458 26 96 266 2 0zm-151 153c0,-49 21,-92 57,-120l-88 -247 -155 198c46,47 79,108 93,176l93 -7zm910 63c25,59 -65,96 -90,37l-99 -238c-217,143 -115,482 144,482 234,0 351,-283 186,-448 -62,-62 -152,-90 -240,-72l99 239zm-1094 48l-258 19c-41,3 -68,-45 -42,-79l160 -203c-263,-137 -519,208 -307,419 156,156 422,61 447,-156zm-64 -203l-91 117 148 -11c-11,-40 -30,-76 -57,-106z"/>
  </g>
</svg>