<?xml version="1.0" encoding="utf-8"?>
<svg xmlns="http://www.w3.org/2000/svg" version="1.1" x="0px" y="0px" viewBox="0 0 100 125" style="enable-background:new 0 0 100 100;">
  <path d="M5.4,32.1H3.8c-1.4,0-2.6,1.2-2.6,2.6v10.8c0,1.4,1.2,2.6,2.6,2.6h1.5c1.4,0,2.6-1.2,2.6-2.6V34.7  C7.9,33.3,6.8,32.1,5.4,32.1z"/>
  <path d="M96.2,33.8h-1.5c-1.4,0-2.6,1.2-2.6,2.6v10.8c0,1.4,1.2,2.6,2.6,2.6h1.5c1.4,0,2.6-1.2,2.6-2.6V36.4  C98.8,34.9,97.6,33.8,96.2,33.8z"/>
  <path d="M82.1,13.4C73,10,50,9.8,50,9.8S26.9,10,17.8,13.4c-9.1,3.4-7.7,10-7.7,10v55.3c0,4.3,3.5,7.7,7.7,7.7h0.9  v3.5c0,1.4,1.2,2.6,2.6,2.6h10.1c1.4,0,2.6-1.2,2.6-2.6v-3.5h16h16v3.5c0,1.4,1.2,2.6,2.6,2.6h10.1c1.4,0,2.6-1.2,2.6-2.6v-3.5h0.9  c4.3,0,7.7-3.5,7.7-7.7V23.3C89.8,23.3,91.2,16.8,82.1,13.4z M42,16.4c0-0.6,0.5-1.1,1.1-1.1h13.8c0.6,0,1.1,0.5,1.1,1.1v3  c0,0.6-0.5,1.1-1.1,1.1H43.1c-0.6,0-1.1-0.5-1.1-1.1V16.4z M31.4,70.7c0,1.3-1,2.3-2.3,2.3h-8.9c-1.3,0-2.3-1-2.3-2.3v-4.8  c0-0.7,0.3-1.4,0.9-1.8c0.6-0.4,1.3-0.6,2-0.4l8.9,2.4c1,0.3,1.7,1.2,1.7,2.2V70.7z M19.4,57.2c-0.8,0-1.4-0.6-1.4-1.4V27.7  c0-0.8,0.6-1.4,1.4-1.4h60.9c0.8,0,1.4,0.6,1.4,1.4v28.1c0,0.8-0.6,1.4-1.4,1.4H19.4z M82,70.7c0,1.3-1,2.3-2.3,2.3h-8.9  c-1.3,0-2.3-1-2.3-2.3v-2.4c0-1,0.7-1.9,1.7-2.2l8.9-2.4c0.7-0.2,1.4,0,2,0.4c0.6,0.4,0.9,1.1,0.9,1.8V70.7z"/>
</svg>