<?xml version="1.0" encoding="utf-8"?>
<svg xmlns="http://www.w3.org/2000/svg" viewBox="0 0 100 125" x="0px" y="0px">
  <path d="M54.33,21.24c4.29,0,7.77-3.49,7.77-7.77s-3.49-7.77-7.77-7.77-7.77,3.49-7.77,7.77,3.49,7.77,7.77,7.77Z"/>
  <path d="M75.91,48.88c-.41-1.01-1.18-1.79-2.18-2.22l-8.98-3.82-8.09-15.1c-.08-.14-.16-.28-.26-.43v-.02c-.97-1.49-2.51-2.61-4.38-2.97-1.81-.35-3.63,.05-5.13,1.12l-14.82,8.78c-.8,.48-1.42,1.22-1.74,2.1l-4.85,13.27c-.37,1.02-.33,2.12,.13,3.1s1.27,1.73,2.29,2.1c.45,.16,.92,.25,1.39,.25,1.7,0,3.23-1.07,3.81-2.67l4.35-11.9,5.28-3.13-2.48,12.97c-.03,.15-.05,.3-.07,.46h0l-4.21,20.3-11.32,15.94c-1.47,2.07-.98,4.95,1.09,6.42,.78,.56,1.7,.85,2.66,.85,1.49,0,2.9-.72,3.76-1.94l11.88-16.73c.37-.52,.62-1.1,.75-1.73l2.53-12.2,9.58,9.82,2.45,18.77c.3,2.28,2.26,4.01,4.56,4.01,.2,0,.4-.01,.6-.04,2.52-.33,4.3-2.64,3.97-5.16l-2.65-20.29c-.13-.98-.58-1.91-1.27-2.62l-11.46-11.75,1.88-9.96,.38-2,2.92,5.46c.43,.81,1.14,1.46,1.99,1.82l10.3,4.38c.51,.22,1.04,.33,1.59,.33,1.63,0,3.1-.97,3.74-2.47,.42-1,.44-2.1,.03-3.11Z"/>
</svg>